<?xml version="1.0" encoding="utf-8"?>
<!-- Generator: Adobe Illustrator 23.1.0, SVG Export Plug-In . SVG Version: 6.00 Build 0)  -->
<svg version="1.1" id="Слой_1" xmlns="http://www.w3.org/2000/svg" xmlns:xlink="http://www.w3.org/1999/xlink" x="0px" y="0px"
	 viewBox="0 0 1000 1000" style="enable-background:new 0 0 1000 1000;" xml:space="preserve">
<style type="text/css">
	.st0{opacity:0.85;}
	.st1{fill:none;stroke:#000000;stroke-miterlimit:10;}
	.st2{fill-rule:evenodd;clip-rule:evenodd;fill:#93278F;}
	.st3{fill:#662D91;}
	.st4{fill-rule:evenodd;clip-rule:evenodd;fill:#662D91;}
	.st5{opacity:0.85;fill:#93278F;stroke:#000000;stroke-miterlimit:10;enable-background:new    ;}
	.st6{opacity:0.85;fill:#662D91;stroke:#000000;stroke-miterlimit:10;enable-background:new    ;}
</style>
<title>logo</title>
<g class="st0">
	<path class="st1" d="M695.7,281v216.3c0,0.6,0,1.2,0,1.8l0,0v290.8h-87v-460c0,0-41.8-20.7-64.6-24.5l0,0c-15.5-1.8-31.5-1.8-47,0
		l0,0c-7,1.2-13.8,2.8-20.3,4.8c-15.9,4.9-30.5,11.6-43.1,19.7c-12.4,8.1-23.4,17.2-32.7,27.1c-12.6,13.3-23.5,28.7-32,45.7
		c-14.2,28.1-22.3,60.5-22.3,95.1c0-34.5-8.1-67-22.3-95.1c-7.9-16-18.7-31.4-32-45.7c-9.2-9.9-20.2-19-32.6-27.1
		c-13.4-8.6-27.8-15.3-43.1-19.7c-6.5-1.9-13.3-3.4-20.3-4.4c-0.1,0-0.2-0.1-0.3-0.4l0,0c-7.7-0.8-15.4-1.3-23.2-1.3
		c-7.9,0-15.8,0.6-23.5,1.8c-22.9,3.4-62.3,24.1-62.3,24.1v460H0V499.1l0,0c0-0.6,0-1.2,0-1.8V277.9c25.1-24.1,54.5-43.1,87-55.3
		c18-7,37.7-11.8,58.2-14.3h57.6c20.5,2.5,40.1,7.3,58.1,14.3c3.8,1.4,7.5,3,11.3,4.6H271c28,12.2,53.5,29.6,75.7,50.9
		c22.1-21.3,47.7-38.7,75.7-50.9c3.7-1.6,7.5-3.2,11.3-4.6c17.9-6.9,37.4-11.8,57.8-14.2c0,0,0,0,0,0c10.1-0.5,20.3-0.5,30.4,0
		c11,0.5,21.9,1.6,32.6,3.2c2.1,0.3,31.2,4.7,53.1,12C646.6,236.6,678.7,264.4,695.7,281z"/>
	<path class="st2" d="M695.7,281v216.3c0,0.6,0,1.2,0,1.8l0,0v290.8h-87v-460c0,0-41.8-20.7-64.6-24.5l0,0c-15.5-1.8-31.5-1.8-47,0
		l0,0c-7,1.2-13.8,2.8-20.3,4.8c-15.9,4.9-30.5,11.6-43.1,19.7c-12.4,8.1-23.4,17.2-32.7,27.1c-12.6,13.3-23.5,28.7-32,45.7
		c-14.2,28.1-22.3,60.5-22.3,95.1c0-34.5-8.1-67-22.3-95.1c-7.9-16-18.7-31.4-32-45.7c-9.2-9.9-20.2-19-32.6-27.1
		c-13.4-8.6-27.8-15.3-43.1-19.7c-6.5-1.9-13.3-3.4-20.3-4.4c-0.1,0-0.2-0.1-0.3-0.4l0,0c-7.7-0.8-15.4-1.3-23.2-1.3
		c-7.9,0-15.8,0.6-23.5,1.8c-22.9,3.4-62.3,24.1-62.3,24.1v460H0V499.1l0,0c0-0.6,0-1.2,0-1.8V277.9c25.1-24.1,54.5-43.1,87-55.3
		c18-7,37.7-11.8,58.2-14.3h57.6c20.5,2.5,40.1,7.3,58.1,14.3c3.8,1.4,7.5,3,11.3,4.6H271c28,12.2,53.5,29.6,75.7,50.9
		c22.1-21.3,47.7-38.7,75.7-50.9c3.7-1.6,7.5-3.2,11.3-4.6c17.9-6.9,37.4-11.8,57.8-14.2c0,0,0,0,0,0c10.1-0.5,20.3-0.5,30.4,0
		c11,0.5,21.9,1.6,32.6,3.2c2.1,0.3,31.2,4.7,53.1,12C646.6,236.6,678.7,264.4,695.7,281z"/>
</g>
<g class="st0">
	<path class="st3" d="M346.6,281.3c-22.3-22.2-47.5-39.8-75-52.2c5.7-6.6,11.7-13,17.8-19.1h0.1l0.1-0.2l0,0
		c16.5-16.7,35.6-32.2,57-46.3c21.3,14,40.4,29.6,57,46.3c6.2,6.2,12.3,12.7,18,19.3C394.2,241.6,368.9,259.1,346.6,281.3z"/>
	<path d="M346.6,164c21.2,14,40.1,29.4,56.6,46l0.1,0.1c6.1,6.1,12,12.4,17.7,19c-27.2,12.4-52.2,29.8-74.3,51.7
		c-22.1-21.9-47.1-39.3-74.3-51.7c5.5-6.4,11.4-12.7,17.4-18.7h0.2l0.2-0.4C306.5,193.3,325.4,177.9,346.6,164 M346.6,163.1
		c-21.5,14.1-40.8,29.7-57.4,46.5l0,0.1l0,0c-6.3,6.3-12.4,12.8-18.2,19.5c28,12.7,53.5,30.6,75.7,52.7
		c22.2-22.1,47.7-40.1,75.7-52.7c-5.8-6.7-11.9-13.3-18.2-19.5l0-0.1C387.4,192.8,368.1,177.2,346.6,163.1z"/>
</g>
<g class="st0">
	<path class="st1" d="M521.7,500.2c0,31.6-3.5,63.2-10.5,94.4c-0.2,0.9-0.4,1.7-0.6,2.6v0.1c-7,30.3-17.6,60.1-31.9,89.2
		c-1.3,2.6-2.5,5.1-3.9,7.6c-11.4,22-25.2,43.3-41.5,63.8c-3,3.7-6,7.4-9.1,11c-29.3-12.7-56.1-31-79.2-53.7
		c6.8-6.6,13.2-13.7,19.4-21.1c14.4-17.5,26.4-35.9,35.9-54.9c6.9-13.7,12.7-27.7,17.4-41.9c0,0,0,0,0-0.1
		c10.4-31.9,15.6-64.4,15.7-97l0,0v-1.8c0.1-31.9-4.8-63.8-14.5-95.1c-4.8-15.5-11-30.7-18.6-45.7c9.4-9.9,20.5-19,33.1-27.1
		c13.6-8.6,28.3-15.3,43.8-19.7c15.1,30.1,26.3,61.1,33.5,92.5c0,0.2,0.1,0.5,0.2,0.7C518.1,435.8,521.8,468,521.7,500.2z"/>
	<path class="st4" d="M521.7,500.2c0,31.6-3.5,63.2-10.5,94.4c-0.2,0.9-0.4,1.7-0.6,2.6v0.1c-7,30.3-17.6,60.1-31.9,89.2
		c-1.3,2.6-2.5,5.1-3.9,7.6c-11.4,22-25.2,43.3-41.5,63.8c-3,3.7-6,7.4-9.1,11c-29.3-12.7-56.1-31-79.2-53.7
		c6.8-6.6,13.2-13.7,19.4-21.1c14.4-17.5,26.4-35.9,35.9-54.9c6.9-13.7,12.7-27.7,17.4-41.9c0,0,0,0,0-0.1
		c10.4-31.9,15.6-64.4,15.7-97l0,0v-1.8c0.1-31.9-4.8-63.8-14.5-95.1c-4.8-15.5-11-30.7-18.6-45.7c9.4-9.9,20.5-19,33.1-27.1
		c13.6-8.6,28.3-15.3,43.8-19.7c15.1,30.1,26.3,61.1,33.5,92.5c0,0.2,0.1,0.5,0.2,0.7C518.1,435.8,521.8,468,521.7,500.2z"/>
</g>
<g class="st0">
	<path class="st1" d="M347.8,715.1c-22.8,22.7-49.1,41-78,53.7c-3.1-3.6-6.1-7.3-9-11c-16-20.5-29.7-41.8-40.8-63.8
		c-1.3-2.5-2.6-5.1-3.8-7.6c-14.1-29.1-24.5-59-31.4-89.2c0,0,0-0.1,0-0.1c-0.2-0.8-0.4-1.7-0.6-2.5
		c-13.8-63.2-13.7-127.4,0.4-190.6c0.1-0.2,0.1-0.5,0.2-0.7c7.1-31.4,18.1-62.4,33-92.5c15.3,4.4,29.8,11.1,43.1,19.7
		c12.4,8.1,23.4,17.3,32.6,27.1c-7.4,15-13.5,30.2-18.3,45.7c-9.6,31.3-14.4,63.1-14.3,95.1v1.8l0,0c0.1,32.6,5.2,65.1,15.4,96.9
		c0,0,0,0,0,0.1c4.6,14.2,10.3,28.2,17.1,41.9c9.3,19,21.1,37.4,35.3,54.9C334.8,701.4,341.1,708.4,347.8,715.1z"/>
	<path class="st4" d="M347.8,715.1c-22.8,22.7-49.1,41-78,53.7c-3.1-3.6-6.1-7.3-9-11c-16-20.5-29.7-41.8-40.8-63.8
		c-1.3-2.5-2.6-5.1-3.8-7.6c-14.1-29.1-24.5-59-31.4-89.2c0,0,0-0.1,0-0.1c-0.2-0.8-0.4-1.7-0.6-2.5
		c-13.8-63.2-13.7-127.4,0.4-190.6c0.1-0.2,0.1-0.5,0.2-0.7c7.1-31.4,18.1-62.4,33-92.5c15.3,4.4,29.8,11.1,43.1,19.7
		c12.4,8.1,23.4,17.3,32.6,27.1c-7.4,15-13.5,30.2-18.3,45.7c-9.6,31.3-14.4,63.1-14.3,95.1v1.8l0,0c0.1,32.6,5.2,65.1,15.4,96.9
		c0,0,0,0,0,0.1c4.6,14.2,10.3,28.2,17.1,41.9c9.3,19,21.1,37.4,35.3,54.9C334.8,701.4,341.1,708.4,347.8,715.1z"/>
</g>
<path class="st5" d="M401,638c-9.3,19-21.1,37.4-35.3,54.9c-6,7.4-12.4,14.4-19.1,21.1c-6.7-6.7-13-13.7-19.1-21.1
	c-14.2-17.5-26-35.9-35.3-54.9c12.3-13.2,22.4-27.2,30.1-41.9c0,0,0-0.1,0-0.1c15.1-28.4,24-61.5,24.2-96.9h0
	c0.3,35.4,9.1,68.5,24.2,96.9c0,0,0,0.1,0,0.1C378.6,610.8,388.7,624.8,401,638z"/>
<path class="st5" d="M424.6,768.2c-6.5,7.7-13.3,15.1-20.4,22.1c-17.7,17.7-36.9,33.3-57.5,46.7c-20.6-13.4-39.9-29-57.5-46.7
	c-7.1-7.1-13.9-14.5-20.4-22.1c28.9-12.7,55.2-31,78-53.7C369.4,737.1,395.7,755.4,424.6,768.2z"/>
<rect x="739.1" y="405.4" class="st6" width="87" height="387.7"/>
<path class="st6" d="M815.2,308.4h-76.1v-96.9H780C796,243,807.8,275.5,815.2,308.4z"/>
<path class="st5" d="M1000,308.4V793h-87V405.4h-67.9c10.1-34.8,21.8-71.2,35.3-109c10.7-29.8,21.5-58,32.6-84.8h87V308.4z"/>
</svg>
