<?xml version="1.0" encoding="utf-8"?>
<!-- Generator: Adobe Illustrator 23.1.0, SVG Export Plug-In . SVG Version: 6.00 Build 0)  -->
<svg version="1.1" id="Слой_1" xmlns="http://www.w3.org/2000/svg" xmlns:xlink="http://www.w3.org/1999/xlink" x="0px" y="0px"
	 viewBox="0 0 1966.7 1247.4" style="enable-background:new 0 0 1966.7 1247.4;" xml:space="preserve">
<style type="text/css">
	.st0{fill:#010202;}
	.st1{fill:none;stroke:#000000;stroke-miterlimit:10;}
</style>
<rect x="532.8" y="310.8" class="st0" width="242.9" height="923.4"/>
<rect x="532.8" y="310.8" class="st1" width="242.9" height="923.4"/>
<polygon class="st0" points="854.6,864.8 532.8,310.8 775.6,310.8 1094.5,864.8 "/>
<polygon class="st1" points="854.6,864.8 532.8,310.8 775.6,310.8 1094.5,864.8 "/>
<polygon class="st0" points="854.6,864.8 1176.4,310.8 1419.3,310.8 1094.5,864.8 "/>
<polygon class="st1" points="854.6,864.8 1176.4,310.8 1419.3,310.8 1094.5,864.8 "/>
<rect x="1176.4" y="310.8" class="st0" width="242.9" height="923.4"/>
<rect x="1176.4" y="310.8" class="st1" width="242.9" height="923.4"/>
<rect x="1176.4" y="13.3" class="st0" width="242.9" height="205.1"/>
<rect x="1176.4" y="13.3" class="st1" width="242.9" height="205.1"/>
<polygon class="st0" points="1702.6,1234.2 1954.8,1234.2 1606,765.2 1364.7,765.2 "/>
<polygon class="st1" points="1702.6,1234.2 1954.8,1234.2 1606.1,765.2 1364.8,765.2 "/>
<polyline class="st0" points="532.8,357 404.6,401.4 404.6,407.1 532.8,363.8 "/>
<polyline class="st1" points="532.8,357 404.6,401.4 404.6,407.1 532.8,363.8 "/>
<polygon class="st0" points="404.6,401.4 532.8,463 532.8,468.7 404.6,407.1 "/>
<polygon class="st1" points="404.6,401.4 532.8,463 532.8,468.7 404.6,407.1 "/>
<polygon class="st0" points="404.6,401.4 248.2,416.2 248.2,424.2 404.6,407.1 "/>
<polygon class="st1" points="404.6,401.4 248.2,416.2 248.2,424.2 404.6,407.1 "/>
<polygon class="st0" points="251.8,424.2 167.5,319.3 167.5,310.8 251.8,416.2 185.6,518.8 189.9,524.5 "/>
<polygon class="st1" points="251.8,424.2 167.5,319.3 167.5,310.8 251.8,416.2 185.6,518.8 189.9,524.5 "/>
<polygon class="st0" points="167.5,310.8 61.7,344.4 61.7,350.1 167.5,319.3 "/>
<polygon class="st1" points="167.5,310.8 61.7,344.4 61.7,350.1 167.5,319.3 "/>
<polygon class="st0" points="61.7,344.4 17.9,468.7 23.9,468.7 66.2,348.8 "/>
<polygon class="st1" points="61.7,344.4 17.9,468.7 23.9,468.7 66.2,348.8 "/>
<polygon class="st0" points="61.7,350.1 66.2,343 193.1,519.3 189.9,524.5 "/>
<polygon class="st1" points="61.7,350.1 66.2,343 193.1,519.3 189.9,524.5 "/>
<polygon class="st0" points="17.9,468.7 66.2,580.4 71.2,574.7 23.9,468.7 "/>
<polygon class="st1" points="17.9,468.7 66.2,580.4 71.2,574.7 23.9,468.7 "/>
<polygon class="st0" points="189,513.6 66.2,574.7 66.2,580.4 189.9,524.5 "/>
<polygon class="st1" points="189,513.6 66.2,574.7 66.2,580.4 189.9,524.5 "/>
<polygon class="st0" points="17.9,468.7 111.9,406.6 116.4,412.8 20.5,474.8 "/>
<polygon class="st1" points="17.9,468.7 111.9,406.6 116.4,412.8 20.5,474.8 "/>
<polygon class="st0" points="67.2,565.7 17.9,728.6 24.7,728.6 71.2,574.7 "/>
<polygon class="st1" points="67.2,565.7 17.9,728.6 24.7,728.6 71.2,574.7 "/>
<polygon class="st0" points="17.9,728.6 149.2,1137.8 156.1,1137.8 24.7,728.6 "/>
<polygon class="st1" points="17.9,728.6 149.2,1137.8 156.1,1137.8 24.7,728.6 "/>
<polygon class="st0" points="153.6,1130 149.2,1137.8 262.7,1201.7 262.7,1193.7 "/>
<polygon class="st1" points="153.6,1130 149.2,1137.8 262.7,1201.7 262.7,1193.7 "/>
<polyline class="st0" points="532.8,1234.2 532.8,1226.8 432.2,1226.8 432.2,1234.2 262.7,1201.7 262.7,1193.7 432.2,1226.8 "/>
<polyline class="st1" points="532.8,1234.2 532.8,1226.8 432.2,1226.8 432.2,1234.2 262.7,1201.7 262.7,1193.7 432.2,1226.8 "/>
<polyline class="st0" points="432.2,1226.8 432.2,1234.2 528.5,1234.2 "/>
<polyline class="st1" points="432.2,1226.8 432.2,1234.2 528.5,1234.2 "/>
<polygon class="st0" points="326.4,587.8 404.6,407.1 411.6,404.8 333.3,587.8 "/>
<polygon class="st1" points="326.4,587.8 404.6,407.1 411.6,404.8 333.3,587.8 "/>
<polygon class="st0" points="331.6,581.3 334.9,587.6 236.6,598.1 232.7,591.3 "/>
<polygon class="st1" points="331.6,581.3 334.9,587.6 236.6,598.1 232.7,591.3 "/>
<polygon class="st0" points="64.9,582.4 69.4,576.5 157.4,684.4 151.9,689.2 "/>
<polygon class="st1" points="64.9,582.4 69.4,576.5 157.4,684.4 151.9,689.2 "/>
<polygon class="st0" points="234,590.7 155.6,680.3 159,687 238.2,598.9 "/>
<polygon class="st1" points="234,590.7 155.6,680.3 159,687 238.2,598.9 "/>
<polyline class="st0" points="20.2,735.8 17.9,728.6 152.2,686.1 156.1,691 "/>
<polyline class="st1" points="20.2,735.8 17.9,728.6 152.2,686.1 156.1,691 "/>
<polygon class="st0" points="152.2,686.1 156.1,679 206,824.4 199.1,824.4 "/>
<polygon class="st1" points="152.2,686.1 156.1,679 206,824.4 199.1,824.4 "/>
<polygon class="st0" points="199.1,824.4 104.4,998 107,1006.3 206,824.4 "/>
<polygon class="st1" points="199.1,824.4 104.4,998 107,1006.3 206,824.4 "/>
<polygon class="st0" points="328.6,584.4 390.9,654.1 394.3,647.1 332.7,580.4 "/>
<polygon class="st1" points="328.6,584.4 390.9,654.1 394.3,647.1 332.7,580.4 "/>
<polyline class="st0" points="394.3,647.1 394.3,710.9 388.3,710.9 388.3,647.1 "/>
<polyline class="st1" points="394.3,647.1 394.3,710.9 388.3,710.9 388.3,647.1 "/>
<polyline class="st0" points="393.4,683.6 389.9,675.8 292.9,642.6 292.6,649.6 "/>
<polyline class="st1" points="393.4,683.6 389.9,675.8 292.9,642.6 292.6,649.6 "/>
<polygon class="st0" points="394.3,703.5 394.3,710.9 328.6,743.4 326.4,735.8 "/>
<polygon class="st1" points="394.3,703.5 394.3,710.9 328.6,743.4 326.4,735.8 "/>
<polyline class="st0" points="269.6,691 273.9,683.6 269.6,691 274.8,696.7 299.6,644.9 292.9,642.6 "/>
<polyline class="st1" points="269.6,691 273.9,683.6 269.6,691 274.8,696.7 299.6,644.9 292.9,642.6 "/>
<polyline class="st0" points="298.3,644 294.6,649.7 235.3,599.1 240.9,596 "/>
<polyline class="st1" points="298.3,644 294.6,649.7 235.3,599.1 240.9,596 "/>
<polyline class="st0" points="394.3,703.5 394.3,710.9 403.1,709.7 532.8,691 532.8,683.6 "/>
<polyline class="st1" points="394.3,703.5 394.3,710.9 403.1,709.7 532.8,691 532.8,683.6 "/>
<polyline class="st0" points="532.8,897 445.4,897 445.4,903.2 532.8,903.2 "/>
<polyline class="st1" points="532.8,897 445.4,897 445.4,903.2 532.8,903.2 "/>
<polygon class="st0" points="400.3,934.8 450.1,900.4 443.8,895.9 395,930.6 "/>
<polygon class="st1" points="400.3,934.8 450.1,900.4 443.8,895.9 395,930.6 "/>
<polyline class="st0" points="536.7,1046.4 544.5,1045.9 433.6,986.9 434,996 539.5,1051.4 "/>
<polyline class="st1" points="536.7,1046.4 544.5,1045.9 433.6,986.9 434,996 539.5,1051.4 "/>
<polyline class="st0" points="395,930.6 434,996 438,989.3 404.6,930.6 "/>
<polyline class="st1" points="395,930.6 434,996 438,989.3 404.6,930.6 "/>
<polyline class="st0" points="389.2,707.6 394.8,705.5 449.3,901.4 443.6,903.5 "/>
<polyline class="st1" points="389.2,707.6 394.8,705.5 449.3,901.4 443.6,903.5 "/>
<polyline class="st0" points="333.1,767.4 337.1,772.5 396,710.8 392.1,705.6 "/>
<polyline class="st1" points="333.1,767.4 337.1,772.5 396,710.8 392.1,705.6 "/>
<polyline class="st0" points="306.4,864.4 312,866.5 339.8,765.2 333.3,765.9 "/>
<polyline class="st1" points="306.4,864.4 312,866.5 339.8,765.2 333.3,765.9 "/>
<polyline class="st0" points="305.8,864.8 307.5,858.3 197.8,820.4 196.9,827.2 "/>
<polyline class="st1" points="305.8,864.8 307.5,858.3 197.8,820.4 196.9,827.2 "/>
<polyline class="st0" points="266,948.1 272.1,951.8 311.2,867.3 305.1,863.6 "/>
<polyline class="st1" points="266,948.1 272.1,951.8 311.2,867.3 305.1,863.6 "/>
<polyline class="st0" points="336.7,1092.8 341.9,1089.5 271.8,946.3 266.6,949.6 "/>
<polyline class="st1" points="336.7,1092.8 341.9,1089.5 271.8,946.3 266.6,949.6 "/>
<polyline class="st0" points="342.8,1091 338.8,1085.8 433.8,990.5 437.8,995.6 "/>
<polyline class="st1" points="342.8,1091 338.8,1085.8 433.8,990.5 437.8,995.6 "/>
<polyline class="st0" points="148,1128.3 149.5,1136.2 342.7,1090.4 341.3,1082.5 "/>
<polyline class="st1" points="148,1128.3 149.5,1136.2 342.7,1090.4 341.3,1082.5 "/>
<polyline class="st0" points="327,744.1 330.7,738.7 271.6,686.3 269.3,692.9 "/>
<polyline class="st1" points="327,744.1 330.7,738.7 271.6,686.3 269.3,692.9 "/>
<polyline class="st0" points="268.2,1195.6 270.3,1202 373.5,1157.7 371.4,1151.3 "/>
<polyline class="st1" points="268.2,1195.6 270.3,1202 373.5,1157.7 371.4,1151.3 "/>
<polyline class="st0" points="372.7,1157.8 378.6,1153.5 338.8,1081.6 332.9,1085.9 "/>
<polyline class="st1" points="372.7,1157.8 378.6,1153.5 338.8,1081.6 332.9,1085.9 "/>
<polyline class="st0" points="421.1,1228.1 426.6,1223.2 376.7,1149.8 371.3,1154.7 "/>
<polyline class="st1" points="421.1,1228.1 426.6,1223.2 376.7,1149.8 371.3,1154.7 "/>
<polyline class="st0" points="652.8,1106.7 652.8,1098.7 448.7,1101.4 448.8,1109.3 "/>
<polyline class="st1" points="652.8,1106.7 652.8,1098.7 448.7,1101.4 448.8,1109.3 "/>
<polyline class="st0" points="404.5,1134.7 408.5,1141.2 450.9,1107.3 446.9,1100.8 "/>
<polyline class="st1" points="404.5,1134.7 408.5,1141.2 450.9,1107.3 446.9,1100.8 "/>
<polyline class="st0" points="446.2,1172.2 450.1,1165.6 407.8,1132.2 403.9,1138.8 "/>
<polyline class="st1" points="446.2,1172.2 450.1,1165.6 407.8,1132.2 403.9,1138.8 "/>
<polyline class="st0" points="592.6,1168.4 592.5,1160.4 444.2,1163.6 444.4,1171.6 "/>
<polyline class="st1" points="592.6,1168.4 592.5,1160.4 444.2,1163.6 444.4,1171.6 "/>
<polyline class="st0" points="372.5,1149.5 375.3,1156.8 414.3,1137.3 411.5,1130 "/>
<polyline class="st1" points="372.5,1149.5 375.3,1156.8 414.3,1137.3 411.5,1130 "/>
<polyline class="st0" points="198.4,821.2 201.9,828 326.7,743.2 323.2,736.3 "/>
<polyline class="st1" points="198.4,821.2 201.9,828 326.7,743.2 323.2,736.3 "/>
<polyline class="st0" points="398.4,934.9 402.4,928.3 312.7,857.1 308.7,863.7 "/>
<polyline class="st1" points="398.4,934.9 402.4,928.3 312.7,857.1 308.7,863.7 "/>
<polygon class="st0" points="1702.6,310.8 1954.8,310.8 1606,782.9 1364.7,782.9 "/>
<polygon class="st1" points="1702.5,310.8 1954.7,310.8 1606,782.9 1364.7,782.9 "/>
</svg>
