<?xml version="1.0" encoding="UTF-8" standalone="no"?>
<!DOCTYPE svg PUBLIC "-//W3C//DTD SVG 1.1//EN" "http://www.w3.org/Graphics/SVG/1.1/DTD/svg11.dtd">
<svg version="1.1" xmlns="http://www.w3.org/2000/svg" xmlns:xlink="http://www.w3.org/1999/xlink" preserveAspectRatio="xMidYMid meet" viewBox="0 0 640 640" width="30" height="30"><defs><path d="M243.56 0.75L252.64 1.67L261.61 2.95L270.47 4.57L279.2 6.54L287.79 8.85L296.25 11.48L304.56 14.43L312.72 17.7L320.72 21.27L328.55 25.13L336.2 29.29L343.68 33.74L350.96 38.46L358.04 43.45L364.93 48.7L371.6 54.21L378.05 59.96L384.27 65.96L390.27 72.18L396.02 78.64L401.52 85.31L406.77 92.19L411.76 99.28L416.48 106.57L420.92 114.04L425.08 121.7L428.95 129.53L432.51 137.53L435.78 145.69L438.73 154.01L441.36 162.47L443.66 171.07L445.63 179.8L447.26 188.66L448.54 197.63L449.46 206.72L450.02 215.9L450.2 225.19L450.02 234.47L449.46 243.68L448.54 252.82L447.26 261.9L445.63 270.94L443.66 279.94L441.36 288.92L438.73 297.88L435.78 306.84L432.51 315.8L428.95 324.78L425.08 333.79L420.92 342.84L416.48 351.93L411.76 361.09L406.77 370.31L401.52 379.62L396.02 389.01L390.27 398.51L384.27 408.12L378.05 417.85L371.6 427.71L364.93 437.72L358.04 447.88L350.96 458.21L343.68 468.71L336.2 479.4L328.55 490.28L320.72 501.37L312.72 512.67L304.56 524.21L296.25 535.98L287.79 548L279.2 560.28L270.47 572.83L261.61 585.66L252.64 598.78L243.56 612.21L234.38 625.94L225.1 640L215.82 625.94L206.64 612.21L197.56 598.78L188.59 585.66L179.74 572.83L171.01 560.28L162.41 548L153.95 535.98L145.64 524.21L137.48 512.67L129.48 501.37L121.65 490.28L114 479.4L106.53 468.71L99.25 458.21L92.16 447.88L85.28 437.72L78.61 427.71L72.16 417.85L65.93 408.12L59.94 398.51L54.19 389.01L48.68 379.62L43.43 370.31L38.44 361.09L33.73 351.93L29.28 342.84L25.13 333.79L21.26 324.78L17.69 315.8L14.43 306.84L11.48 297.88L8.85 288.92L6.54 279.94L4.57 270.94L2.95 261.9L1.67 252.82L0.75 243.68L0.19 234.47L0 225.19L0.19 215.9L0.75 206.72L1.67 197.63L2.95 188.66L4.57 179.8L6.54 171.07L8.85 162.47L11.48 154.01L14.43 145.69L17.69 137.53L21.26 129.53L25.13 121.7L29.28 114.04L33.73 106.57L38.44 99.28L43.43 92.19L48.68 85.31L54.19 78.64L59.94 72.18L65.93 65.96L72.16 59.96L78.61 54.21L85.28 48.7L92.16 43.45L99.25 38.46L106.53 33.74L114 29.29L121.65 25.13L129.48 21.27L137.48 17.7L145.64 14.43L153.95 11.48L162.41 8.85L171.01 6.54L179.74 4.57L188.59 2.95L197.56 1.67L206.64 0.75L215.82 0.19L225.1 0L234.38 0.19L243.56 0.75ZM216.36 107.02L212.06 107.46L207.81 108.06L203.61 108.83L199.48 109.77L195.41 110.86L191.4 112.1L187.46 113.5L183.6 115.05L179.81 116.74L176.1 118.57L172.47 120.54L168.94 122.65L165.49 124.88L162.13 127.25L158.87 129.73L155.71 132.34L152.65 135.07L149.71 137.91L146.87 140.86L144.14 143.92L141.53 147.08L139.05 150.34L136.69 153.69L134.45 157.15L132.35 160.69L130.38 164.31L128.54 168.02L126.85 171.81L125.31 175.68L123.91 179.62L122.66 183.63L121.57 187.7L120.64 191.84L119.87 196.03L119.26 200.28L118.83 204.59L118.56 208.94L118.47 213.33L118.56 217.73L118.83 222.08L119.26 226.38L119.87 230.64L120.64 234.83L121.57 238.97L122.66 243.04L123.91 247.05L125.31 250.99L126.85 254.85L128.54 258.64L130.38 262.35L132.35 265.98L134.45 269.52L136.69 272.97L139.05 276.33L141.53 279.59L144.14 282.75L146.87 285.81L149.71 288.76L152.65 291.6L155.71 294.32L158.87 296.93L162.13 299.42L165.49 301.78L168.94 304.02L172.47 306.12L176.1 308.09L179.81 309.93L183.6 311.62L187.46 313.16L191.4 314.56L195.41 315.81L199.48 316.9L203.61 317.83L207.81 318.6L212.06 319.21L216.36 319.65L220.71 319.91L225.1 320L229.5 319.91L233.85 319.65L238.15 319.21L242.4 318.6L246.59 317.83L250.73 316.9L254.8 315.81L258.8 314.56L262.74 313.16L266.61 311.62L270.39 309.93L274.1 308.09L277.73 306.12L281.27 304.02L284.72 301.78L288.07 299.42L291.33 296.93L294.49 294.32L297.55 291.6L300.5 288.76L303.34 285.81L306.06 282.75L308.67 279.59L311.16 276.33L313.52 272.97L315.75 269.52L317.86 265.98L319.83 262.35L321.66 258.64L323.35 254.85L324.9 250.99L326.29 247.05L327.54 243.04L328.63 238.97L329.56 234.83L330.33 230.64L330.94 226.38L331.38 222.08L331.64 217.73L331.73 213.33L331.64 208.94L331.38 204.59L330.94 200.28L330.33 196.03L329.56 191.84L328.63 187.7L327.54 183.63L326.29 179.62L324.9 175.68L323.35 171.81L321.66 168.02L319.83 164.31L317.86 160.69L315.75 157.15L313.52 153.69L311.16 150.34L308.67 147.08L306.06 143.92L303.34 140.86L300.5 137.91L297.55 135.07L294.49 132.34L291.33 129.73L288.07 127.25L284.72 124.88L281.27 122.65L277.73 120.54L274.1 118.57L270.39 116.74L266.61 115.05L262.74 113.5L258.8 112.1L254.8 110.86L250.73 109.77L246.59 108.83L242.4 108.06L238.15 107.46L233.85 107.02L229.5 106.76L225.1 106.67L220.71 106.76L216.36 107.02Z" id="eurrJi6jZ"></path><path d="M322.65 231.94C322.65 270.07 289.41 301.02 248.47 301.02C207.53 301.02 174.29 270.07 174.29 231.94C174.29 193.81 207.53 162.86 248.47 162.86C289.41 162.86 322.65 193.81 322.65 231.94Z" id="b9ALP1Hsz"></path></defs><g><g><g><use xlink:href="#eurrJi6jZ" opacity="1" fill="#000000" fill-opacity="1"></use><g><use xlink:href="#eurrJi6jZ" opacity="1" fill-opacity="0" stroke="#ffffff" stroke-width="1" stroke-opacity="1"></use></g></g><g><use xlink:href="#b9ALP1Hsz" opacity="1" fill="#050505" fill-opacity="1"></use><g><use xlink:href="#b9ALP1Hsz" opacity="1" fill-opacity="0" stroke="#ffffff" stroke-width="1" stroke-opacity="1"></use></g></g></g></g></svg>