<?xml version="1.0" encoding="UTF-8" standalone="no"?>
<!DOCTYPE svg PUBLIC "-//W3C//DTD SVG 1.1//EN" "http://www.w3.org/Graphics/SVG/1.1/DTD/svg11.dtd">
<svg version="1.1" xmlns="http://www.w3.org/2000/svg" xmlns:xlink="http://www.w3.org/1999/xlink" preserveAspectRatio="xMidYMid meet" viewBox="0 0 640 640" width="32" height="32"><defs><path d="M368.97 86.18L369.58 86.24L370.16 86.33L370.73 86.44L371.29 86.57L371.83 86.73L372.35 86.9L372.85 87.1L373.34 87.32L373.82 87.56L374.28 87.82L374.73 88.11L375.16 88.41L375.58 88.72L376 89.06L376.39 89.41L376.78 89.79L377.16 90.17L377.53 90.58L377.88 91L378.23 91.43L378.57 91.88L378.9 92.35L379.22 92.82L379.54 93.32L379.85 93.82L380.15 94.33L380.45 94.86L380.74 95.4L381.03 95.95L381.31 96.51L381.59 97.08L381.86 97.66L382.13 98.25L382.4 98.85L382.67 99.45L382.94 100.06L383.2 100.68L383.47 101.31L397.1 140.7L401.38 141.72L410.84 144.31L420.13 147.17L429.23 150.3L438.14 153.69L438.87 153.99L484.84 133.5L485.6 133.2L486.35 132.91L487.1 132.62L487.85 132.34L488.59 132.07L489.32 131.8L490.05 131.54L490.77 131.29L491.48 131.05L492.19 130.81L492.89 130.59L493.59 130.38L494.27 130.18L494.95 129.99L495.63 129.82L496.3 129.65L496.96 129.51L497.61 129.37L498.25 129.25L498.89 129.15L499.52 129.07L500.15 129L500.76 128.94L501.37 128.91L501.97 128.9L502.56 128.9L503.14 128.93L503.71 128.97L504.28 129.04L504.84 129.13L505.39 129.24L505.93 129.37L506.46 129.53L506.98 129.72L507.49 129.92L508 130.16L508.49 130.41L508.98 130.7L509.45 131.01L509.92 131.36L576.81 182.87L577.25 183.23L577.66 183.6L578.04 183.98L578.38 184.37L578.7 184.76L578.98 185.17L579.23 185.58L579.45 186L579.64 186.43L579.8 186.86L579.93 187.3L580.03 187.75L580.11 188.21L580.16 188.67L580.19 189.14L580.18 189.62L580.16 190.1L580.11 190.58L580.03 191.07L579.94 191.57L579.82 192.07L579.67 192.58L579.51 193.09L579.32 193.6L579.12 194.12L578.9 194.64L578.65 195.17L578.39 195.69L578.11 196.22L577.81 196.76L577.5 197.29L577.17 197.83L576.82 198.37L576.46 198.91L576.09 199.46L575.7 200L575.3 200.55L574.88 201.09L574.46 201.64L574.02 202.19L547.45 237.53L548 238.3L552.4 245.16L556.46 252.17L560.18 259.32L563.53 266.61L564.86 269.91L616.01 280.41L616.82 280.56L617.62 280.71L618.42 280.87L619.2 281.04L619.98 281.21L620.74 281.39L621.49 281.58L622.23 281.77L622.96 281.97L623.68 282.18L624.38 282.4L625.06 282.62L625.73 282.85L626.39 283.09L627.02 283.34L627.64 283.59L628.25 283.85L628.83 284.12L629.39 284.4L629.94 284.69L630.46 284.99L630.97 285.3L631.45 285.61L631.91 285.94L632.35 286.27L632.76 286.62L633.15 286.97L633.51 287.34L633.85 287.71L634.16 288.1L634.45 288.49L634.71 288.9L634.94 289.32L635.14 289.74L635.31 290.18L635.46 290.63L635.57 291.09L635.65 291.57L635.7 292.05L635.71 292.55L635.71 365.4L635.7 365.9L635.65 366.38L635.57 366.85L635.46 367.3L635.31 367.74L635.14 368.16L634.94 368.58L634.71 368.98L634.45 369.37L634.16 369.75L633.85 370.11L633.51 370.47L633.15 370.81L632.76 371.15L632.35 371.47L631.91 371.79L631.45 372.1L630.97 372.39L630.46 372.69L629.94 372.97L629.39 373.24L628.83 373.51L628.25 373.77L627.64 374.03L627.02 374.28L626.39 374.52L625.73 374.76L625.06 374.99L624.38 375.22L623.68 375.44L622.96 375.66L622.23 375.88L621.49 376.1L620.74 376.31L619.98 376.52L619.2 376.73L618.42 376.93L617.62 377.14L616.82 377.34L616.01 377.55L564.86 388.05L563.53 391.34L560.18 398.63L556.46 405.78L552.4 412.79L548 419.65L547.5 420.35L574.02 455.62L574.46 456.17L574.88 456.71L575.3 457.26L575.7 457.81L576.09 458.35L576.46 458.89L576.82 459.44L577.17 459.98L577.5 460.51L577.81 461.05L578.11 461.58L578.39 462.11L578.65 462.64L578.9 463.17L579.12 463.69L579.32 464.21L579.51 464.72L579.67 465.23L579.82 465.74L579.94 466.24L580.03 466.73L580.11 467.23L580.16 467.71L580.18 468.19L580.19 468.67L580.16 469.14L580.11 469.6L580.03 470.05L579.93 470.5L579.8 470.95L579.64 471.38L579.45 471.81L579.23 472.23L578.98 472.64L578.7 473.05L578.38 473.44L578.04 473.83L577.66 474.21L577.25 474.58L576.81 474.94L509.92 526.45L509.45 526.79L508.98 527.11L508.49 527.39L508 527.65L507.49 527.89L506.98 528.09L506.46 528.28L505.93 528.43L505.39 528.57L504.84 528.68L504.28 528.77L503.71 528.84L503.14 528.88L502.56 528.91L501.97 528.91L501.37 528.9L500.76 528.86L500.15 528.81L499.52 528.74L498.89 528.66L498.25 528.55L497.61 528.44L496.96 528.3L496.3 528.15L495.63 527.99L494.95 527.82L494.27 527.63L493.59 527.43L492.89 527.22L492.19 527L491.48 526.76L490.77 526.52L490.05 526.27L489.32 526.01L488.59 525.74L487.85 525.47L487.1 525.18L486.35 524.9L485.6 524.6L484.84 524.31L439.04 503.88L438.14 504.27L429.23 507.66L420.13 510.78L410.84 513.64L401.38 516.23L397.1 517.25L383.47 556.65L383.2 557.27L382.94 557.89L382.67 558.5L382.4 559.11L382.13 559.7L381.86 560.29L381.59 560.87L381.31 561.44L381.03 562L380.74 562.55L380.45 563.09L380.15 563.62L379.85 564.13L379.54 564.64L379.22 565.13L378.9 565.61L378.57 566.07L378.23 566.52L377.88 566.96L377.53 567.38L377.16 567.78L376.78 568.17L376.39 568.54L376 568.89L375.58 569.23L375.16 569.55L374.73 569.85L374.28 570.13L373.82 570.39L373.34 570.63L372.85 570.85L372.35 571.05L371.83 571.23L371.29 571.38L370.73 571.51L370.16 571.62L369.58 571.71L368.97 571.77L368.35 571.81L367.7 571.82L273.11 571.82L272.47 571.81L271.84 571.77L271.22 571.71L270.62 571.62L270.04 571.51L269.47 571.38L268.91 571.23L268.37 571.05L267.85 570.85L267.33 570.63L266.83 570.39L266.35 570.13L265.87 569.85L265.41 569.55L264.97 569.23L264.53 568.89L264.11 568.54L263.7 568.17L263.3 567.78L262.91 567.38L262.54 566.96L262.17 566.52L261.82 566.07L261.48 565.61L261.15 565.13L260.83 564.64L260.52 564.13L260.22 563.62L259.93 563.09L259.65 562.55L259.38 562L259.12 561.44L258.87 560.87L258.63 560.29L258.39 559.7L258.17 559.11L257.95 558.5L257.74 557.89L257.54 557.27L257.35 556.65L243.71 517.25L239.43 516.23L229.97 513.64L220.69 510.78L211.59 507.66L202.68 504.27L201.6 503.82L155.98 524.16L155.27 524.5L154.56 524.83L153.85 525.15L153.14 525.46L152.43 525.75L151.73 526.04L151.02 526.32L150.32 526.59L149.62 526.84L148.93 527.08L148.23 527.31L147.55 527.53L146.86 527.73L146.18 527.92L145.5 528.09L144.83 528.25L144.16 528.39L143.5 528.52L142.84 528.63L142.19 528.72L141.55 528.79L140.91 528.85L140.28 528.89L139.65 528.91L139.04 528.91L138.43 528.89L137.83 528.85L137.24 528.79L136.65 528.71L136.08 528.61L135.51 528.49L134.96 528.34L134.41 528.17L133.88 527.98L133.35 527.76L132.84 527.52L132.34 527.26L131.84 526.97L131.36 526.65L130.9 526.31L64.01 474.79L63.57 474.43L63.16 474.07L62.79 473.69L62.45 473.31L62.15 472.92L61.88 472.53L61.64 472.13L61.44 471.72L61.26 471.3L61.12 470.88L61 470.45L60.92 470.01L60.86 469.57L60.82 469.12L60.82 468.67L60.84 468.21L60.88 467.74L60.95 467.26L61.04 466.78L61.15 466.3L61.28 465.81L61.43 465.31L61.61 464.81L61.8 464.3L62.01 463.79L62.24 463.27L62.48 462.74L62.74 462.21L63.02 461.68L63.3 461.14L63.61 460.59L63.92 460.04L64.25 459.49L64.59 458.93L64.93 458.36L65.29 457.79L65.66 457.22L66.03 456.64L66.41 456.06L66.8 455.47L93.26 420.28L92.82 419.65L88.42 412.79L84.35 405.78L80.64 398.63L77.28 391.34L75.96 388.05L24.81 377.55L24 377.34L23.19 377.14L22.4 376.93L21.61 376.73L20.84 376.52L20.08 376.31L19.32 376.1L18.58 375.88L17.86 375.66L17.14 375.44L16.44 375.22L15.76 374.99L15.09 374.76L14.43 374.52L13.79 374.28L13.17 374.03L12.57 373.77L11.99 373.51L11.42 373.24L10.88 372.97L10.35 372.69L9.85 372.39L9.37 372.1L8.91 371.79L8.47 371.47L8.06 371.15L7.67 370.81L7.3 370.47L6.96 370.11L6.65 369.75L6.37 369.37L6.11 368.98L5.88 368.58L5.68 368.16L5.5 367.74L5.36 367.3L5.25 366.85L5.17 366.38L5.12 365.9L5.1 365.4L5.1 292.55L5.12 292.05L5.17 291.57L5.25 291.09L5.36 290.63L5.5 290.18L5.68 289.74L5.88 289.32L6.11 288.9L6.37 288.49L6.65 288.1L6.96 287.71L7.3 287.34L7.67 286.97L8.06 286.62L8.47 286.27L8.91 285.94L9.37 285.61L9.85 285.3L10.35 284.99L10.88 284.69L11.42 284.4L11.99 284.12L12.57 283.85L13.17 283.59L13.79 283.34L14.43 283.09L15.09 282.85L15.76 282.62L16.44 282.4L17.14 282.18L17.86 281.97L18.58 281.77L19.32 281.58L20.08 281.39L20.84 281.21L21.61 281.04L22.4 280.87L23.19 280.71L24 280.56L24.81 280.41L75.96 269.91L77.28 266.61L80.64 259.32L84.35 252.17L88.42 245.16L92.82 238.3L93.31 237.61L66.8 202.33L66.41 201.75L66.03 201.17L65.66 200.59L65.29 200.01L64.93 199.45L64.59 198.88L64.25 198.32L63.92 197.77L63.61 197.22L63.3 196.67L63.02 196.13L62.74 195.6L62.48 195.07L62.24 194.54L62.01 194.02L61.8 193.51L61.61 193L61.43 192.5L61.28 192L61.15 191.51L61.04 191.02L60.95 190.54L60.88 190.07L60.84 189.6L60.82 189.14L60.82 188.69L60.86 188.24L60.92 187.8L61 187.36L61.12 186.93L61.26 186.51L61.44 186.09L61.64 185.68L61.88 185.28L62.15 184.88L62.45 184.5L62.79 184.12L63.16 183.74L63.57 183.37L64.01 183.02L130.9 131.5L131.36 131.16L131.84 130.84L132.34 130.55L132.84 130.29L133.35 130.05L133.88 129.83L134.41 129.64L134.96 129.47L135.51 129.32L136.08 129.2L136.65 129.09L137.24 129.01L137.83 128.95L138.43 128.92L139.04 128.9L139.65 128.9L140.28 128.92L140.91 128.96L141.55 129.01L142.19 129.09L142.84 129.18L143.5 129.29L144.16 129.42L144.83 129.56L145.5 129.72L146.18 129.89L146.86 130.08L147.55 130.28L148.23 130.5L148.93 130.73L149.62 130.97L150.32 131.22L151.02 131.49L151.73 131.77L152.43 132.05L153.14 132.35L153.85 132.66L154.56 132.98L155.27 133.31L155.98 133.65L201.78 154.07L202.68 153.69L211.59 150.3L220.69 147.17L229.97 144.31L239.43 141.72L243.71 140.7L257.35 101.31L257.54 100.68L257.74 100.06L257.95 99.45L258.17 98.85L258.39 98.25L258.63 97.66L258.87 97.08L259.12 96.51L259.38 95.95L259.65 95.4L259.93 94.86L260.22 94.33L260.52 93.82L260.83 93.32L261.15 92.82L261.48 92.35L261.82 91.88L262.17 91.43L262.54 91L262.91 90.58L263.3 90.17L263.7 89.79L264.11 89.41L264.53 89.06L264.97 88.72L265.41 88.41L265.87 88.11L266.35 87.82L266.83 87.56L267.33 87.32L267.85 87.1L268.37 86.9L268.91 86.73L269.47 86.57L270.04 86.44L270.62 86.33L271.22 86.24L271.84 86.18L272.47 86.14L273.11 86.13L367.7 86.13L368.35 86.14L368.97 86.18ZM309.09 223.08L303.53 223.52L298.03 224.12L292.61 224.89L287.26 225.82L281.99 226.91L276.81 228.15L271.71 229.54L266.71 231.08L261.81 232.76L257.01 234.59L252.32 236.55L247.74 238.65L243.28 240.88L238.94 243.23L234.72 245.71L230.63 248.31L226.68 251.02L222.87 253.85L219.19 256.79L215.67 259.83L212.29 262.98L209.08 266.23L206.02 269.57L203.13 273.01L200.41 276.54L197.86 280.15L195.49 283.85L193.3 287.62L191.3 291.47L189.49 295.39L187.88 299.39L186.47 303.44L185.26 307.56L184.27 311.74L183.48 315.98L182.92 320.26L182.58 324.6L182.46 328.98L182.58 333.36L182.92 337.69L183.48 341.98L184.27 346.21L185.26 350.39L186.47 354.51L187.88 358.57L189.49 362.56L191.3 366.48L193.3 370.33L195.49 374.11L197.86 377.8L200.41 381.42L203.13 384.94L206.02 388.38L209.08 391.72L212.29 394.97L215.67 398.12L219.19 401.16L222.87 404.1L226.68 406.93L230.63 409.65L234.72 412.24L238.94 414.72L243.28 417.08L247.74 419.3L252.32 421.4L257.01 423.36L261.81 425.19L266.71 426.87L271.71 428.41L276.81 429.81L281.99 431.05L287.26 432.13L292.61 433.06L298.03 433.83L303.53 434.43L309.09 434.87L314.72 435.13L320.41 435.22L326.09 435.13L331.72 434.87L337.29 434.43L342.78 433.83L348.21 433.06L353.56 432.13L358.83 431.05L364.01 429.81L369.1 428.41L374.1 426.87L379 425.19L383.8 423.36L388.49 421.4L393.07 419.3L397.54 417.08L401.88 414.72L406.09 412.24L410.18 409.65L414.14 406.93L417.95 404.1L421.62 401.16L425.15 398.12L428.52 394.97L431.74 391.72L434.8 388.38L437.69 384.94L440.41 381.42L442.96 377.8L445.33 374.11L447.51 370.33L449.51 366.48L451.32 362.56L452.93 358.57L454.35 354.51L455.55 350.39L456.55 346.21L457.33 341.98L457.9 337.69L458.24 333.36L458.35 328.98L458.24 324.6L457.9 320.26L457.33 315.98L456.55 311.74L455.55 307.56L454.35 303.44L452.93 299.39L451.32 295.39L449.51 291.47L447.51 287.62L445.33 283.85L442.96 280.15L440.41 276.54L437.69 273.01L434.8 269.57L431.74 266.23L428.52 262.98L425.15 259.83L421.62 256.79L417.95 253.85L414.14 251.02L410.18 248.31L406.09 245.71L401.88 243.23L397.54 240.88L393.07 238.65L388.49 236.55L383.8 234.59L379 232.76L374.1 231.08L369.1 229.54L364.01 228.15L358.83 226.91L353.56 225.82L348.21 224.89L342.78 224.12L337.29 223.52L331.72 223.08L326.09 222.82L320.41 222.73L314.72 222.82L309.09 223.08Z" id="bmM7Nmie"></path><path d="M635.71 0C635.71 108.4 635.71 176.15 635.71 203.25C635.71 310.48 588.37 412.23 506.36 481.3C481.56 502.17 419.58 554.37 320.41 637.88L320.41 637.88L320.41 0" id="cEoolG6Zu"></path><path d="M5.1 0C5.1 108.4 5.1 176.15 5.1 203.25C5.1 310.48 52.44 412.23 134.46 481.3C159.25 502.17 221.24 554.37 320.41 637.88L320.41 637.88L320.41 0" id="b3BxDWiTkP"></path><path d="M635.71 0L635.71 637.88L5.1 637.88L5.1 0" id="c1X32DeK0F"></path><path d="M320.41 637.88L320.41 0" id="b19nvtdBO"></path><path d="M278.37 318.94L278.37 135.98" id="bk8Lr3MEM"></path><path d="" id="d1jUha3D0C"></path></defs><g><g><g><use xlink:href="#bmM7Nmie" opacity="1" fill="#304fb4" fill-opacity="0.66"></use><g><use xlink:href="#bmM7Nmie" opacity="1" fill-opacity="0" stroke="#000000" stroke-width="15" stroke-opacity="1"></use></g></g><g><g><use xlink:href="#cEoolG6Zu" opacity="1" fill-opacity="0" stroke="#000000" stroke-width="8" stroke-opacity="1"></use></g></g><g><g><use xlink:href="#b3BxDWiTkP" opacity="1" fill-opacity="0" stroke="#000000" stroke-width="8" stroke-opacity="1"></use></g></g><g><g><use xlink:href="#c1X32DeK0F" opacity="1" fill-opacity="0" stroke="#000000" stroke-width="16" stroke-opacity="1"></use></g></g><g><g><use xlink:href="#b19nvtdBO" opacity="1" fill-opacity="0" stroke="#000000" stroke-width="16" stroke-opacity="1"></use></g></g><g><use xlink:href="#bk8Lr3MEM" opacity="1" fill="#5af3c1" fill-opacity="1"></use><g><use xlink:href="#bk8Lr3MEM" opacity="1" fill-opacity="0" stroke="#000000" stroke-width="10" stroke-opacity="1"></use></g></g><g><use xlink:href="#d1jUha3D0C" opacity="1" fill="#000000" fill-opacity="1"></use><g><use xlink:href="#d1jUha3D0C" opacity="1" fill-opacity="0" stroke="#000000" stroke-width="3" stroke-opacity="1"></use></g></g></g></g></svg>