<?xml version="1.0" encoding="UTF-8" standalone="no"?>
<!DOCTYPE svg PUBLIC "-//W3C//DTD SVG 1.1//EN" "http://www.w3.org/Graphics/SVG/1.1/DTD/svg11.dtd">
<svg version="1.1" xmlns="http://www.w3.org/2000/svg" xmlns:xlink="http://www.w3.org/1999/xlink" preserveAspectRatio="xMidYMid meet" viewBox="0 0 640 640" width="30" height="30"><defs><path d="M0 640L0 0L640 0L640 640L0 640ZM80 560L200 440L280 480L400 320L560 533.34L560 80L80 80L80 560ZM225.74 170.23L228.56 170.52L231.35 170.92L234.11 171.42L236.82 172.03L239.5 172.75L242.13 173.57L244.71 174.49L247.25 175.5L249.73 176.61L252.17 177.81L254.55 179.11L256.87 180.49L259.14 181.95L261.34 183.51L263.48 185.14L265.56 186.85L267.56 188.64L269.5 190.5L271.36 192.44L273.15 194.44L274.86 196.52L276.49 198.66L278.05 200.86L279.51 203.13L280.89 205.45L282.19 207.83L283.39 210.27L284.5 212.75L285.51 215.29L286.43 217.87L287.25 220.5L287.97 223.18L288.58 225.89L289.08 228.65L289.48 231.44L289.77 234.26L289.94 237.11L290 240L289.94 242.89L289.77 245.74L289.48 248.56L289.08 251.35L288.58 254.11L287.97 256.82L287.25 259.5L286.43 262.13L285.51 264.71L284.5 267.25L283.39 269.73L282.19 272.17L280.89 274.55L279.51 276.87L278.05 279.14L276.49 281.34L274.86 283.48L273.15 285.56L271.36 287.56L269.5 289.5L267.56 291.36L265.56 293.15L263.48 294.86L261.34 296.49L259.14 298.05L256.87 299.51L254.55 300.89L252.17 302.19L249.73 303.39L247.25 304.5L244.71 305.51L242.13 306.43L239.5 307.25L236.82 307.97L234.11 308.58L231.35 309.08L228.56 309.48L225.74 309.77L222.89 309.94L220 310L217.11 309.94L214.26 309.77L211.44 309.48L208.65 309.08L205.89 308.58L203.18 307.97L200.5 307.25L197.87 306.43L195.29 305.51L192.75 304.5L190.27 303.39L187.83 302.19L185.45 300.89L183.13 299.51L180.86 298.05L178.66 296.49L176.52 294.86L174.44 293.15L172.44 291.36L170.5 289.5L168.64 287.56L166.85 285.56L165.14 283.48L163.51 281.34L161.95 279.14L160.49 276.87L159.11 274.55L157.81 272.17L156.61 269.73L155.5 267.25L154.49 264.71L153.57 262.13L152.75 259.5L152.03 256.82L151.42 254.11L150.92 251.35L150.52 248.56L150.23 245.74L150.06 242.89L150 240L150.06 237.11L150.23 234.26L150.52 231.44L150.92 228.65L151.42 225.89L152.03 223.18L152.75 220.5L153.57 217.87L154.49 215.29L155.5 212.75L156.61 210.27L157.81 207.83L159.11 205.45L160.49 203.13L161.95 200.86L163.51 198.66L165.14 196.52L166.85 194.44L168.64 192.44L170.5 190.5L172.44 188.64L174.44 186.85L176.52 185.14L178.66 183.51L180.86 181.95L183.13 180.49L185.45 179.11L187.83 177.81L190.27 176.61L192.75 175.5L195.29 174.49L197.87 173.57L200.5 172.75L203.18 172.03L205.89 171.42L208.65 170.92L211.44 170.52L214.26 170.23L217.11 170.06L220 170L222.89 170.06L225.74 170.23Z" id="d7hVV0vWv"></path><path d="M443.47 493.28C443.47 508.83 425.56 521.43 403.47 521.43C381.38 521.43 363.47 508.83 363.47 493.28C363.47 477.73 381.38 465.13 403.47 441.43C425.56 465.13 443.47 477.73 443.47 493.28Z" id="a29k6J6bBl"></path></defs><g><g><g><use xlink:href="#d7hVV0vWv" opacity="1" fill="#000000" fill-opacity="1"></use><g><use xlink:href="#d7hVV0vWv" opacity="1" fill-opacity="0" stroke="#ffffff" stroke-width="1" stroke-opacity="1"></use></g></g><g><use xlink:href="#a29k6J6bBl" opacity="1" fill="#000000" fill-opacity="1"></use><g><use xlink:href="#a29k6J6bBl" opacity="1" fill-opacity="0" stroke="#ffffff" stroke-width="1" stroke-opacity="1"></use></g></g></g></g></svg>