<?xml version="1.0" encoding="UTF-8" standalone="no"?>
<!DOCTYPE svg PUBLIC "-//W3C//DTD SVG 1.1//EN" "http://www.w3.org/Graphics/SVG/1.1/DTD/svg11.dtd">
<svg version="1.1" xmlns="http://www.w3.org/2000/svg" xmlns:xlink="http://www.w3.org/1999/xlink" preserveAspectRatio="xMidYMid meet" viewBox="0 0 640 640" width="30" height="30"><defs><path d="M440 60L440.02 59.18L440.07 58.36L440.15 57.55L440.26 56.76L440.41 55.97L440.58 55.2L440.79 54.43L441.02 53.68L441.28 52.94L441.57 52.22L441.89 51.51L442.23 50.81L442.6 50.13L443 49.47L443.42 48.82L443.86 48.19L444.33 47.58L444.82 46.99L445.33 46.41L445.86 45.86L446.41 45.33L446.99 44.82L447.58 44.33L448.19 43.86L448.82 43.42L449.47 43L450.13 42.6L450.81 42.23L451.51 41.89L452.22 41.57L452.94 41.28L453.68 41.02L454.43 40.79L455.2 40.58L455.97 40.41L456.76 40.26L457.55 40.15L458.36 40.07L459.18 40.02L460 40L540 40L540.82 40.02L541.64 40.07L542.45 40.15L543.24 40.26L544.03 40.41L544.8 40.58L545.57 40.79L546.32 41.02L547.06 41.28L547.78 41.57L548.49 41.89L549.19 42.23L549.87 42.6L550.53 43L551.18 43.42L551.81 43.86L552.42 44.33L553.01 44.82L553.59 45.33L554.14 45.86L554.67 46.41L555.18 46.99L555.67 47.58L556.14 48.19L556.58 48.82L557 49.47L557.4 50.13L557.77 50.81L558.11 51.51L558.43 52.22L558.72 52.94L558.98 53.68L559.21 54.43L559.42 55.2L559.59 55.97L559.74 56.76L559.85 57.55L559.93 58.36L559.98 59.18L560 60L560 270L640 360L560 360L560 640L381.92 640L381.92 639.95L381.94 639.06L381.94 444.81L381.92 443.92L381.87 443.04L381.78 442.17L381.67 441.31L381.52 440.46L381.34 439.63L381.12 438.8L380.88 437.99L380.61 437.19L380.31 436.41L379.98 435.64L379.63 434.89L379.25 434.16L378.84 433.44L378.41 432.75L377.95 432.07L377.47 431.41L376.96 430.77L376.44 430.15L375.89 429.55L375.31 428.98L374.72 428.42L374.11 427.9L373.48 427.39L372.83 426.91L372.16 426.46L371.48 426.04L370.77 425.64L370.06 425.27L369.32 424.92L368.58 424.61L367.81 424.33L367.04 424.07L366.25 423.85L365.45 423.66L364.64 423.51L363.81 423.39L362.98 423.3L362.14 423.24L361.29 423.23L278.71 423.23L277.86 423.24L277.02 423.3L276.19 423.39L275.36 423.51L274.55 423.66L273.75 423.85L272.96 424.07L272.19 424.33L271.42 424.61L270.68 424.92L269.94 425.27L269.23 425.64L268.52 426.04L267.84 426.46L267.17 426.91L266.52 427.39L265.89 427.9L265.28 428.42L264.69 428.98L264.11 429.55L263.56 430.15L263.04 430.77L262.53 431.41L262.05 432.07L261.59 432.75L261.16 433.44L260.75 434.16L260.37 434.89L260.02 435.64L259.69 436.41L259.39 437.19L259.12 437.99L258.88 438.8L258.66 439.63L258.48 440.46L258.33 441.31L258.22 442.17L258.13 443.04L258.08 443.92L258.06 444.81L258.06 639.06L258.08 639.95L258.08 640L80 640L80 360L0 360L320 0L440 135L440 60Z" id="b2QgaL67LO"></path></defs><g><g><g><use xlink:href="#b2QgaL67LO" opacity="1" fill="#000000" fill-opacity="1"></use><g><use xlink:href="#b2QgaL67LO" opacity="1" fill-opacity="0" stroke="#ffffff" stroke-width="1" stroke-opacity="1"></use></g></g></g></g></svg>